name p02_m_01_labelled_grf.mot
datacolumns 46
datarows 12
range 0.355000 0.360500
endheader
time	1_ground_force_vx	1_ground_force_vy	1_ground_force_vz	1_ground_force_px	1_ground_force_py	1_ground_force_pz	1_ground_torque_x	1_ground_torque_y	1_ground_torque_z	2_ground_force_vx	2_ground_force_vy	2_ground_force_vz	2_ground_force_px	2_ground_force_py	2_ground_force_pz	2_ground_torque_x	2_ground_torque_y	2_ground_torque_z	3_ground_force_vx	3_ground_force_vy	3_ground_force_vz	3_ground_force_px	3_ground_force_py	3_ground_force_pz	3_ground_torque_x	3_ground_torque_y	3_ground_torque_z	4_ground_force_vx	4_ground_force_vy	4_ground_force_vz	4_ground_force_px	4_ground_force_py	4_ground_force_pz	4_ground_torque_x	4_ground_torque_y	4_ground_torque_z	5_ground_force_vx	5_ground_force_vy	5_ground_force_vz	5_ground_force_px	5_ground_force_py	5_ground_force_pz	5_ground_torque_x	5_ground_torque_y	5_ground_torque_z
            0.355000	            0.354754	           -0.258809	            0.180445	            1.356692	           -0.011209	            0.306747	           -0.104148	            0.070221	            0.433033	          636.783807	         1056.215852	          -41.920865	            0.691680	           -0.004496	            0.218337	           -2.671763	           -4.431581	            0.175888	           -0.107632	           -1.123168	            0.202850	           -0.457621	            0.004852	            0.303465	           -0.048433	           -0.168918	           -0.202969	           -0.263725	            0.301654	           -0.435123	           -1.364246	            0.012957	            0.295129	           -0.318780	           -0.004111	           -0.112534	           -0.474851	           -2.396991	           -0.012335	           -2.299638	            0.019384	            0.322027	            0.194566	           -0.083669	            0.015297
            0.355500	            0.559153	            0.211290	           -0.019896	            1.356692	           -0.011209	            0.306747	           -0.191506	           -0.046438	            0.722416	          638.439541	         1016.901633	          -47.533884	            0.691085	           -0.004492	            0.218455	           -2.559431	           -4.076643	            0.190558	            0.030661	            0.591747	            0.084749	           -0.457621	            0.004852	            0.303465	            0.058286	           -0.102850	           -0.358885	           -0.361498	           -1.748640	           -0.472590	           -1.364246	            0.012957	            0.295129	           -0.150671	            0.002586	           -0.171779	           -0.239009	           -2.555235	           -0.133169	           -2.299638	            0.019384	            0.322027	            0.169865	           -0.086190	           -0.134215
            0.356000	            0.601088	            0.374380	            0.060597	            1.356692	           -0.011209	            0.306747	            0.168018	           -0.069975	            0.671252	          636.633291	          976.037559	          -51.294701	            0.691186	           -0.004493	            0.218310	           -2.178438	           -3.339815	            0.175521	           -0.092540	            0.283571	           -0.154409	           -0.457621	            0.004852	            0.303465	            0.402561	           -0.048438	           -0.148981	           -0.389415	           -0.328813	           -0.353372	           -1.364246	            0.012957	            0.295129	           -0.194192	           -0.191922	            0.101398	           -0.388989	            0.424089	            0.148648	           -2.299638	            0.019384	            0.322027	            0.119005	           -0.172448	            0.023479
            0.356500	            0.489020	            1.161953	           -0.260973	            1.356692	           -0.011209	            0.306747	           -0.175177	           -0.018340	            0.275850	          630.299422	          934.724170	          -53.928419	            0.692778	           -0.004506	            0.218614	           -2.039220	           -3.024131	            0.174476	            0.154032	            0.901111	            0.403713	           -0.457621	            0.004852	            0.303465	           -0.288533	           -0.029838	           -0.131110	           -0.237514	           -1.119965	           -0.034655	           -1.364246	            0.012957	            0.295129	           -0.248173	           -0.024113	            0.388031	           -0.073528	            0.737643	           -0.052257	           -2.299638	            0.019384	            0.322027	            0.001199	           -0.153189	            0.044709
            0.357000	            0.403406	            0.692728	           -0.260488	            1.356692	           -0.011209	            0.306747	            0.122609	           -0.111420	           -0.007866	          620.464016	          895.173746	          -56.860594	            0.693118	           -0.004510	            0.218802	           -1.920037	           -2.770131	            0.175956	           -0.136870	           -0.185703	            0.203982	           -0.457621	            0.004852	            0.303465	            0.018285	           -0.094764	            0.012701	           -0.022474	            0.615271	           -0.035883	           -1.364246	            0.012957	            0.295129	            0.051276	           -0.091564	           -0.095434	           -0.233804	           -0.669982	            0.107577	           -2.299638	            0.019384	            0.322027	           -0.304808	           -0.013724	            0.198714
            0.357500	            0.667641	           -0.892860	           -0.179920	            1.356692	           -0.011209	            0.306747	           -0.016368	           -0.112696	            0.010596	          609.499084	          858.455383	          -60.913928	            0.693397	           -0.004511	            0.218561	           -1.628572	           -2.293779	            0.162761	           -0.055624	           -0.031857	            0.203877	           -0.457621	            0.004852	            0.303465	           -0.014356	           -0.054893	           -0.363564	           -0.238364	           -1.275719	           -0.192699	           -1.364246	            0.012957	            0.295129	           -0.004110	           -0.099379	           -0.218691	           -0.232063	            0.109312	            0.108093	           -2.299638	            0.019384	            0.322027	            0.121504	           -0.047632	           -0.076171
            0.358000	            0.647505	            1.005104	           -0.139752	            1.356692	           -0.011209	            0.306747	            0.114569	           -0.136585	            0.672713	          596.048246	          821.123439	          -64.505638	            0.694602	           -0.004519	            0.218489	           -1.494068	           -2.058247	            0.161691	            0.032812	            0.748807	            0.284470	           -0.457621	            0.004852	            0.303465	            0.012888	           -0.172848	            0.133035	            0.077445	           -1.752991	           -0.270472	           -1.364246	            0.012957	            0.295129	           -0.232095	           -0.113567	            0.077907	           -0.034491	            0.109470	            0.186663	           -2.299638	            0.019384	            0.322027	            0.115527	           -0.139810	            0.046826
            0.358500	            0.513274	           -0.259032	           -0.219965	            1.356692	           -0.011209	            0.306747	           -0.014224	           -0.177332	            0.222454	          580.052024	          786.472024	          -66.942160	            0.694571	           -0.004519	            0.218544	           -1.188941	           -1.612043	            0.137212	            0.001410	            1.527941	            0.086067	           -0.457621	            0.004852	            0.303465	           -0.137133	           -0.076026	           -0.141871	           -0.156826	           -0.960279	            0.163619	           -1.364246	            0.012957	            0.295129	            0.039493	           -0.019727	           -0.213553	           -0.351612	           -0.354746	            0.068081	           -2.299638	            0.019384	            0.322027	            0.026836	           -0.147776	            0.519504
            0.359000	            0.792361	           -0.418476	           -0.300458	            1.356692	           -0.011209	            0.306747	            0.157525	           -0.142374	            0.405839	          561.831718	          754.346466	          -68.618161	            0.694237	           -0.004518	            0.218723	           -1.061044	           -1.424616	            0.129588	           -0.046943	            0.748558	            0.164884	           -0.457621	            0.004852	            0.303465	            0.085642	           -0.108794	           -0.418760	           -0.077607	           -1.277394	           -0.470391	           -1.364246	            0.012957	            0.295129	           -0.118783	           -0.162143	           -0.208549	           -0.354245	           -1.459086	            0.027489	           -2.299638	            0.019384	            0.322027	           -0.005984	           -0.116637	           -0.304628
            0.359500	            0.747123	           -0.893865	           -0.179920	            1.356692	           -0.011209	            0.306747	           -0.016936	           -0.163155	            0.126778	          545.125900	          721.418103	          -70.565091	            0.694964	           -0.004522	            0.218518	           -0.912668	           -1.207822	            0.118142	           -0.171124	            0.284235	            0.323765	           -0.457621	            0.004852	            0.303465	            0.306519	           -0.019841	            0.064570	           -0.437280	           -1.274570	           -0.472370	           -1.364246	            0.012957	            0.295129	           -0.052830	           -0.131910	           -0.011142	           -0.314395	           -0.984894	           -0.131301	           -2.299638	            0.019384	            0.322027	           -0.158854	           -0.018284	            0.083272
            0.360000	            0.792337	           -0.420769	           -0.219958	            1.356692	           -0.011209	            0.306747	           -0.113745	           -0.167706	           -0.147246	          531.202916	          686.122301	          -72.983082	            0.698209	           -0.004545	            0.218001	           -0.776486	           -1.002940	            0.106683	            0.018745	           -0.497637	            0.243196	           -0.457621	            0.004852	            0.303465	            0.146761	           -0.194161	            0.460062	           -0.140982	            0.773619	           -0.037730	           -1.364246	            0.012957	            0.295129	           -0.114292	           -0.014564	            0.172027	           -0.272239	           -0.364989	            0.187998	           -2.299638	            0.019384	            0.322027	            0.015782	           -0.060469	           -0.572662
            0.360500	            0.464477	           -1.049001	            0.020408	            1.356692	           -0.011209	            0.306747	            0.003184	           -0.146846	            0.385547	          516.120909	          656.163994	          -75.262556	            0.697829	           -0.004541	            0.217750	           -0.686490	           -0.872761	            0.100106	           -0.100786	           -0.499354	            0.123747	           -0.457621	            0.004852	            0.303465	            0.087582	           -0.130973	           -0.530943	           -0.310221	           -0.487127	           -0.552342	           -1.364246	            0.012957	            0.295129	           -0.213198	           -0.166843	           -0.169440	           -0.510778	           -0.671797	           -0.091588	           -2.299638	            0.019384	            0.322027	            0.035540	           -0.203538	            0.069871
